<svg width="242" height="242" viewBox="0 0 242 242" fill="none" xmlns="http://www.w3.org/2000/svg">
<path fill-rule="evenodd" clip-rule="evenodd" d="M55 0C24.6243 0 0 24.6243 0 55V187C0 217.376 24.6243 242 55 242H187C217.376 242 242 217.376 242 187V55C242 24.6243 217.376 0 187 0H55ZM77 52L84.858 76.1844H110.287L89.7145 91.1312L97.5725 115.316L77 100.369L56.4275 115.316L64.2855 91.1312L43.713 76.1844H69.142L77 52ZM162.226 112.549L151 78L139.774 112.549H103.447L132.836 133.902L121.611 168.451L151 147.098L180.389 168.451L169.164 133.902L198.553 112.549H162.226ZM96.4496 155.311L90.5 137L84.5504 155.311H65.297L80.8733 166.628L74.9237 184.939L90.5 173.622L106.076 184.939L100.127 166.628L115.703 155.311H96.4496Z" fill="#233862"/>
</svg>
